<?xml version="1.0" encoding="UTF-8" standalone="no"?>
<!-- Created with Inkscape (http://www.inkscape.org/) -->

<svg
   width="29.357805mm"
   height="29.357805mm"
   viewBox="0 0 29.357805 29.357805"
   version="1.1"
   id="svg1"
   inkscape:version="1.3.2 (091e20e, 2023-11-25)"
   sodipodi:docname="favicon.svg"
   xmlns:inkscape="http://www.inkscape.org/namespaces/inkscape"
   xmlns:sodipodi="http://sodipodi.sourceforge.net/DTD/sodipodi-0.dtd"
   xmlns:xlink="http://www.w3.org/1999/xlink"
   xmlns="http://www.w3.org/2000/svg"
   xmlns:svg="http://www.w3.org/2000/svg">
  <sodipodi:namedview
     id="namedview1"
     pagecolor="#ffffff"
     bordercolor="#000000"
     borderopacity="0.25"
     inkscape:showpageshadow="2"
     inkscape:pageopacity="0.0"
     inkscape:pagecheckerboard="0"
     inkscape:deskcolor="#d1d1d1"
     inkscape:document-units="mm"
     inkscape:zoom="2.3827206"
     inkscape:cx="25.181299"
     inkscape:cy="44.067273"
     inkscape:window-width="1496"
     inkscape:window-height="857"
     inkscape:window-x="0"
     inkscape:window-y="43"
     inkscape:window-maximized="0"
     inkscape:current-layer="layer1" />
  <defs
     id="defs1">
    <radialGradient
       inkscape:collect="always"
       xlink:href="#linearGradient39"
       id="radialGradient100"
       gradientUnits="userSpaceOnUse"
       gradientTransform="matrix(1.4314603,1.7403976,-1.5618842,1.2846348,0.47142577,-279.35736)"
       cx="158.48781"
       cy="43.945236"
       fx="158.48781"
       fy="43.945236"
       r="14.318955" />
    <linearGradient
       id="linearGradient39"
       inkscape:collect="always">
      <stop
         style="stop-color:#11ffbc;stop-opacity:1;"
         offset="0"
         id="stop40" />
      <stop
         style="stop-color:#7909ff;stop-opacity:1;"
         offset="1"
         id="stop41" />
    </linearGradient>
    <radialGradient
       inkscape:collect="always"
       xlink:href="#linearGradient39"
       id="radialGradient97"
       gradientUnits="userSpaceOnUse"
       gradientTransform="matrix(1.4314603,1.7403976,-1.5618842,1.2846348,0.47142577,-279.35736)"
       cx="158.48781"
       cy="43.945236"
       fx="158.48781"
       fy="43.945236"
       r="14.318955" />
    <radialGradient
       inkscape:collect="always"
       xlink:href="#linearGradient39"
       id="radialGradient98"
       gradientUnits="userSpaceOnUse"
       gradientTransform="matrix(1.4314603,1.7403976,-1.5618842,1.2846348,0.47142577,-279.35736)"
       cx="158.48781"
       cy="43.945236"
       fx="158.48781"
       fy="43.945236"
       r="14.318955" />
    <radialGradient
       inkscape:collect="always"
       xlink:href="#linearGradient39"
       id="radialGradient99"
       gradientUnits="userSpaceOnUse"
       gradientTransform="matrix(1.4314603,1.7403976,-1.5618842,1.2846348,0.47142577,-279.35736)"
       cx="158.48781"
       cy="43.945236"
       fx="158.48781"
       fy="43.945236"
       r="14.318955" />
  </defs>
  <g
     inkscape:label="Taso 1"
     inkscape:groupmode="layer"
     id="layer1"
     transform="translate(-89.693748,-133.87917)">
    <g
       id="g97"
       style="mix-blend-mode:normal;fill:url(#radialGradient100);fill-rule:nonzero"
       inkscape:export-filename="../../../../../../Documents/GitHub/Lightmotion-Oy.github.io/favicon.png"
       inkscape:export-xdpi="600"
       inkscape:export-ydpi="600"
       transform="translate(-52.003517,104.34085)">
      <path
         d="m 147.81682,35.058325 c -1.02985,-0.0013 -1.23124,0.192113 -1.6769,0.964282 -1.21603,2.106169 -2.42971,4.21537 -3.64578,6.321578 -0.7493,1.297982 -0.61535,1.439748 0.13436,2.736784 l 3.15433,5.460649 c 0.41226,0.713266 0.80753,1.286743 2.23604,1.286743 4.7475,-0.01475 9.5014,-0.02739 14.25081,-0.02739 1.02032,0 1.20509,-0.05326 1.76165,-1.021126 0.13542,-0.234454 0.90888,-1.563672 1.60197,-2.755904 l -1.05316,-1.824695 -1.76217,3.029273 c -0.32999,0.509243 -0.5811,0.581057 -1.00614,0.580843 l -13.44776,-0.0067 c -0.4785,-0.02602 -0.66088,-0.105932 -0.89142,-0.520382 l -3.12694,-5.41569 c -0.2351,-0.406182 -0.21464,-0.576193 0.003,-1.013892 l 3.32383,-5.710762 c 0.0898,-0.157914 0.31354,-0.28704 0.49506,-0.287838 0.62862,-0.002 2.12571,0.0049 3.49591,0.01085 l 1.0387,-1.800923 z"
         style="fill:url(#radialGradient97);fill-rule:nonzero;stroke-width:0.260532"
         id="path95" />
      <path
         d="m 164.18429,30.46429 -6.30762,0.0021 c -0.82377,2.75e-4 -1.51806,0.05497 -2.23242,1.292945 -2.35993,4.119434 -4.72616,8.242194 -7.10086,12.355318 -0.51013,0.883626 -0.55562,1.070421 0.004,2.036051 0.13542,0.234099 0.89959,1.569434 1.58543,2.765723 h 2.10685 l -1.74253,-3.040641 c -0.27537,-0.540539 -0.21261,-0.793895 0,-1.161686 l 6.72982,-11.642701 c 0.26097,-0.401749 0.42339,-0.518839 0.89658,-0.511596 h 6.25337 c 0.46943,0 0.60638,0.101456 0.87643,0.509529 l 3.28404,5.7335 c 0.0899,0.15768 0.0921,0.414876 0.002,0.572575 -0.3129,0.545179 -1.06715,1.838416 -1.75752,3.022038 l 1.03973,1.79989 2.44843,-4.227649 c 0.51604,-0.89131 0.44883,-1.162683 0.003,-1.934765 -1.21601,-2.106229 -2.43593,-4.211706 -3.65197,-6.317961 -0.73799,-1.278173 -0.93884,-1.253938 -2.37505,-1.252637 z"
         style="fill:url(#radialGradient98);fill-rule:nonzero;stroke-width:0.260532"
         id="path96" />
      <path
         d="m 157.11496,35.100183 -1.05317,1.824695 3.50418,0.01189 c 0.60579,0.03152 0.794,0.212702 1.00614,0.580843 l 6.71794,11.649935 c 0.21736,0.426856 0.23778,0.625668 -0.005,1.031978 l -3.12694,5.41569 c -0.23466,0.406397 -0.39139,0.47377 -0.87953,0.503845 l -6.60735,-0.02274 c -0.18187,-2.82e-4 -0.40568,-0.127755 -0.49713,-0.284221 -0.31572,-0.543469 -1.05857,-1.843768 -1.7384,-3.033406 l -2.07842,5.16e-4 2.43706,4.234367 c 0.51377,0.892505 0.78219,0.969967 1.6738,0.969967 2.43206,0 4.86515,-0.0041 7.29723,-0.0041 1.40114,0 1.54795,-0.175049 2.17196,-1.256254 l 3.28404,-5.691643 c 0.4116,-0.713588 0.71001,-1.341948 -0.004,-2.57917 -2.38757,-4.103466 -4.77471,-8.214815 -7.14943,-12.32793 -0.51013,-0.883627 -0.64896,-1.01634 -1.76475,-1.014925 -0.27037,2.21e-4 -1.80895,-0.0052 -3.18792,-0.0093 z"
         style="fill:url(#radialGradient99);fill-rule:nonzero;stroke-width:0.260532"
         id="path97" />
    </g>
  </g>
</svg>
